HIERARCHY
ROOT Hips
{
	OFFSET 23.497593 106.474762 21.262596
	CHANNELS 6 Xposition Yposition Zposition Zrotation Yrotation Xrotation 
	JOINT Chest
	{
		OFFSET 0.580036 13.621132 0.531460
		CHANNELS 3 Zrotation Yrotation Xrotation
		JOINT Chest2
		{
			OFFSET -2.424541 20.719734 4.886827
			CHANNELS 3 Zrotation Yrotation Xrotation
			JOINT Chest3
			{
				OFFSET -1.881546 14.726471 1.552645
				CHANNELS 3 Zrotation Yrotation Xrotation
				JOINT Neck
				{
					OFFSET -1.286528 16.995468 2.848719
					CHANNELS 3 Zrotation Yrotation Xrotation
					JOINT Head
					{
						OFFSET -2.452715 9.371277 3.998899
						CHANNELS 3 Zrotation Yrotation Xrotation
						End Site #name: Head_end_site
						{
							OFFSET -2.461088 9.397644 3.931290
						}
					}
				}
				JOINT LeftCollar
				{
					OFFSET 3.900276 13.165176 3.642878
					CHANNELS 3 Zrotation Yrotation Xrotation
					JOINT LeftUpArm
					{
						OFFSET 11.508392 4.641510 -12.430315
						CHANNELS 3 Zrotation Yrotation Xrotation
						JOINT LeftLowArm
						{
							OFFSET 30.675648 0.582581 -14.085207
							CHANNELS 3 Zrotation Yrotation Xrotation
							JOINT LeftHand
							{
								OFFSET 9.183357 -20.593231 19.812431
								CHANNELS 3 Zrotation Yrotation Xrotation
								End Site #name: LeftHand_end_site
								{
									OFFSET 2.007095 -4.500763 4.330112
								}
							}
						}
					}
				}
				JOINT RightCollar
				{
					OFFSET -4.068437 12.141678 6.151100
					CHANNELS 3 Zrotation Yrotation Xrotation
					JOINT RightUpArm
					{
						OFFSET -17.383726 -2.114166 -1.353813
						CHANNELS 3 Zrotation Yrotation Xrotation
						JOINT RightLowArm
						{
							OFFSET -27.448490 -15.287903 12.352943
							CHANNELS 3 Zrotation Yrotation Xrotation
							JOINT RightHand
							{
								OFFSET 14.298917 -9.177490 24.744087
								CHANNELS 3 Zrotation Yrotation Xrotation
								End Site #name: RightHand_end_site
								{
									OFFSET 3.125172 -2.005844 5.408058
								}
							}
						}
					}
				}
			}
		}
	}
	JOINT LeftUpLeg
	{
		OFFSET 9.777130 -0.331818 -2.171806
		CHANNELS 3 Zrotation Yrotation Xrotation
		JOINT LeftLowLeg
		{
			OFFSET -2.538305 -47.302231 -0.213335
			CHANNELS 3 Zrotation Yrotation Xrotation
			JOINT LeftFoot
			{
				OFFSET -5.695713 -42.619003 -12.318569
				CHANNELS 3 Zrotation Yrotation Xrotation
				JOINT LeftToe
				{
					OFFSET 1.715792 -19.607395 13.121193
					CHANNELS 3 Zrotation Yrotation Xrotation
					End Site #name: LeftToe_end_site
					{
						OFFSET 6.331409 -6.981546 21.696318
					}
				}
			}
		}
	}
	JOINT RightUpLeg
	{
		OFFSET -9.777143 0.331619 2.171801
		CHANNELS 3 Zrotation Yrotation Xrotation
		JOINT RightLowLeg
		{
			OFFSET -8.868001 -42.333626 19.319288
			CHANNELS 3 Zrotation Yrotation Xrotation
			JOINT RightFoot
			{
				OFFSET -10.327073 -40.017891 -17.102621
				CHANNELS 3 Zrotation Yrotation Xrotation
				JOINT RightToe
				{
					OFFSET -4.248121 -21.662176 8.500608
					CHANNELS 3 Zrotation Yrotation Xrotation
					End Site #name: RightToe_end_site
					{
						OFFSET -3.333981 -11.248210 20.540649
					}
				}
			}
		}
	}
}
MOTION
Frames: 6
Frame Time: 0.033333
-0.161331 106.130440 0.000000 0.000000 0.000000 0.000000 0.000000 0.000000 0.000000 0.000000 0.000000 0.000000 0.000000 0.000000 0.000000 0.000000 0.000000 0.000000 0.000000 0.000000 0.000000 0.000000 0.000000 0.000000 0.000000 0.000000 0.000000 0.000000 0.000000 -5.000000 0.000000 0.000000 0.000000 0.000000 0.000000 0.000000 0.000000 0.000000 0.000000 0.000000 0.000000 -5.000000 0.000000 0.000000 0.000000 0.000000 0.000000 0.000000 0.000000 0.000000 0.000000 0.000000 0.000000 2.955202 0.000000 0.000000 0.000000 0.000000 0.000000 0.000000 0.000000 0.000000 -0.000000 0.000000 0.000000 -2.955202 0.000000 0.000000 0.000000 
0.034458 106.260966 1.675393 0.391579 0.000000 0.000000 -0.261052 0.000000 0.000000 0.000000 0.000000 0.000000 0.000000 0.000000 0.000000 0.000000 0.000000 0.000000 0.000000 0.000000 0.517638 0.000000 0.000000 0.000000 0.000000 0.000000 -1.957893 0.000000 0.000000 -5.000000 0.000000 0.000000 0.000000 0.000000 0.000000 0.000000 0.000000 0.000000 1.957893 0.000000 0.000000 -5.000000 0.000000 0.000000 0.000000 0.000000 0.000000 3.263155 0.000000 0.000000 -5.221048 0.000000 0.000000 4.176884 0.000000 0.000000 0.000000 0.000000 0.000000 -3.263155 0.000000 0.000000 0.000000 0.000000 0.000000 -4.176884 0.000000 0.000000 0.000000 
0.226898 106.389259 3.350785 0.776457 0.000000 0.000000 -0.517638 0.000000 0.000000 0.000000 0.000000 0.000000 0.000000 0.000000 0.000000 0.000000 0.000000 0.000000 0.000000 0.000000 1.000000 0.000000 0.000000 0.000000 0.000000 0.000000 -3.882286 0.000000 0.000000 -5.000000 0.000000 0.000000 0.000000 0.000000 0.000000 0.000000 0.000000 0.000000 3.882286 0.000000 0.000000 -5.000000 0.000000 0.000000 0.000000 0.000000 0.000000 6.470476 0.000000 0.000000 -10.352762 0.000000 0.000000 5.327099 0.000000 0.000000 0.000000 0.000000 0.000000 -6.470476 0.000000 0.000000 0.000000 0.000000 0.000000 -5.327099 0.000000 0.000000 0.000000 
0.412694 106.513123 5.026178 1.148050 0.000000 0.000000 -0.765367 0.000000 0.000000 0.000000 0.000000 0.000000 0.000000 0.000000 0.000000 0.000000 0.000000 0.000000 0.000000 0.000000 1.414214 0.000000 0.000000 0.000000 0.000000 0.000000 -5.740251 0.000000 0.000000 -5.000000 0.000000 0.000000 0.000000 0.000000 0.000000 0.000000 0.000000 0.000000 5.740251 0.000000 0.000000 -5.000000 0.000000 0.000000 0.000000 0.000000 0.000000 9.567086 0.000000 0.000000 -15.307337 0.000000 0.000000 6.386165 0.000000 0.000000 0.000000 0.000000 0.000000 -9.567086 0.000000 0.000000 0.000000 0.000000 0.000000 -6.386165 0.000000 0.000000 0.000000 
0.588669 106.630440 6.701571 1.500000 0.000000 0.000000 -1.000000 0.000000 0.000000 0.000000 0.000000 0.000000 0.000000 0.000000 0.000000 0.000000 0.000000 0.000000 0.000000 0.000000 1.732051 0.000000 0.000000 0.000000 0.000000 0.000000 -7.500000 0.000000 0.000000 -5.000000 0.000000 0.000000 0.000000 0.000000 0.000000 0.000000 0.000000 0.000000 7.500000 0.000000 0.000000 -5.000000 0.000000 0.000000 0.000000 0.000000 0.000000 12.500000 0.000000 0.000000 -20.000000 0.000000 0.000000 7.335963 0.000000 0.000000 0.000000 0.000000 0.000000 -12.500000 0.000000 0.000000 0.000000 0.000000 0.000000 -7.335963 0.000000 0.000000 0.000000 
0.751811 106.739201 8.376963 1.826284 0.000000 0.000000 -1.217523 0.000000 0.000000 0.000000 0.000000 0.000000 0.000000 0.000000 0.000000 0.000000 0.000000 0.000000 0.000000 0.000000 1.931852 0.000000 0.000000 0.000000 0.000000 0.000000 -9.131421 0.000000 0.000000 -5.000000 0.000000 0.000000 0.000000 0.000000 0.000000 0.000000 0.000000 0.000000 9.131421 0.000000 0.000000 -5.000000 0.000000 0.000000 0.000000 0.000000 0.000000 15.219036 0.000000 0.000000 -24.350457 0.000000 0.000000 8.160239 0.000000 0.000000 0.000000 0.000000 0.000000 -15.219036 0.000000 0.000000 0.000000 0.000000 0.000000 -8.160239 0.000000 0.000000 0.000000 
